<?xml version="1.0" encoding="UTF-8"?><svg id="salmon_cookie_logo" xmlns="http://www.w3.org/2000/svg" viewBox="0 0 269.69 176.94"><defs><style>.cls-1{stroke-width:1.83px;}.cls-1,.cls-2,.cls-3,.cls-4,.cls-5{fill:#f4decb;}.cls-1,.cls-3,.cls-4,.cls-5{stroke:#f4decb;}.cls-1,.cls-3,.cls-5{stroke-linecap:round;stroke-linejoin:round;}.cls-3{stroke-width:4.27px;}.cls-5{stroke-width:3.05px;}</style></defs><path class="cls-2" d="M139.21,6.63c7.18,1.4,13.99,4.77,19.44,9.73,5.52,4.97,9.72,11.51,11.93,18.77,0,0-3.26-1.81-3.26-1.81,12.82-4.57,27.37-4.43,40.14,.46,22.27,8.16,37.73,30.1,39.35,53.78,.84,12.79-3.06,25.79-10.7,36.06,0,0-2.03-8.73-2.03-8.73,12.29,7.67,20.27,22.01,19.53,36.46-.2,4.61-1.23,9.12-3.09,13.15-.15,.33-.54,.47-.87,.32-.25-.11-.39-.37-.38-.63,.4-8.26-1.33-16.38-5.32-23.4-3.72-6.56-9.29-11.97-15.97-15.28-2.85-1.42-4.02-4.88-2.6-7.74,8.03-13.35,11.07-29.91,6.67-45.02-7.65-26.41-36.78-41.74-63.19-34.49-1.36,.47-2.88-.3-3.24-1.71-2.81-13.41-13.38-24.78-26.7-28.68-.34-.1-.53-.46-.43-.8,.09-.32,.42-.51,.74-.45h0Z"/><circle class="cls-5" cx="203.84" cy="12.21" r="10.68"/><circle class="cls-1" cx="260.66" cy="112" r="6.41"/><circle class="cls-3" cx="252.6" cy="28.62" r="14.95"/><path class="cls-4" d="M28.3,59.46l.33-2.57c0-2.54-1-4.18-2.99-4.9-1.55-.5-2.74-.75-3.57-.75h-.08c-1.66,0-3.1,.26-4.32,.79-1.22,.53-2.1,1.18-2.66,1.95-1.16,1.61-1.83,3.29-1.99,5.06,0,2.1,.94,3.92,2.82,5.44,1.88,1.52,4.16,2.85,6.85,3.98,2.68,1.13,5.37,2.37,8.05,3.69,2.68,1.33,4.97,3.24,6.85,5.73,1.88,2.49,2.82,5.48,2.82,8.96,0,6.81-2.15,11.9-6.43,15.27s-9.16,5.06-14.61,5.06-9.96-1.23-13.53-3.69c-3.57-2.46-5.35-5.77-5.35-9.92v-.08c0-2.05,.32-3.83,.95-5.35,.64-1.52,1.4-2.64,2.28-3.36,1.83-1.49,3.49-2.3,4.98-2.41l1-.08c1.55,0,2.96,.37,4.23,1.12,1.27,.75,1.91,1.78,1.91,3.11,0,.66-.36,1.22-1.08,1.66-.72,.44-1.34,1.11-1.87,1.99-.53,.89-.82,1.63-.87,2.24l-.17,.91c0,3.38,1.55,5.62,4.65,6.72,1.11,.39,1.99,.58,2.66,.58,3.04,0,5.49-.91,7.35-2.74,1.85-1.83,2.78-4.15,2.78-6.97,0-3.38-1.44-6.11-4.32-8.22-2.16-1.55-4.5-2.85-7.01-3.9-2.52-1.05-4.22-1.8-5.1-2.24-.89-.44-1.83-.97-2.82-1.58-1-.61-2.1-1.46-3.32-2.57-2.66-2.32-3.98-5.46-3.98-9.42s1.08-7.29,3.24-10c3.87-4.92,9.68-7.39,17.43-7.39,4.09,0,7.55,.79,10.38,2.37s4.23,3.75,4.23,6.52c0,1.99-.57,3.65-1.7,4.98s-2.59,1.99-4.36,1.99c-.83,0-1.65-.17-2.45-.5-.8-.33-1.2-.83-1.2-1.49Z"/><path class="cls-4" d="M70.3,80.55l-.17,10.62c0,7.36,.8,11.79,2.41,13.28,.22,.22,.33,.47,.33,.75,0,.83-1.78,1.25-5.35,1.25s-5.46-1.05-5.69-3.15c-.06-.5-.08-1.52-.08-3.07l.33-13.28c0-.39-.22-.58-.66-.58-2.66,0-5.15,.75-7.47,2.24s-3.49,3.4-3.49,5.73c0,1.22,.33,2.24,1,3.07s1.48,1.25,2.45,1.25,1.77-.19,2.41-.58c.63-.39,1.01-.61,1.12-.66,.94,.11,1.41,1.09,1.41,2.95s-.86,3.35-2.57,4.48c-1.72,1.13-3.52,1.7-5.4,1.7s-3.5-.33-4.86-1-2.34-1.41-2.95-2.24c-.61-.83-1.11-1.77-1.49-2.82-.39-1.27-.58-2.38-.58-3.32,0-3.87,1.22-6.97,3.65-9.3,2.43-2.32,5.56-3.98,9.38-4.98,5.04-1,7.66-1.91,7.89-2.74,.17-.61,.25-1.63,.25-3.07,0-2.93-1.49-4.4-4.48-4.4-1.27,0-2.41,.4-3.4,1.2-1,.8-1.49,1.81-1.49,3.03l.5,1.99c-.11,.94-1.11,1.49-2.99,1.66l-.91,.08c-1.66,0-2.98-.42-3.94-1.25-.97-.83-1.45-1.94-1.45-3.32,0-.88,.29-1.87,.87-2.95,.58-1.08,1.31-1.95,2.2-2.61,.88-.66,2.25-1.26,4.11-1.78,1.85-.53,3.64-.79,5.35-.79s3.04,.06,3.98,.17c.94,.11,2.23,.37,3.86,.79,1.63,.41,2.99,1.2,4.07,2.37s1.66,2.39,1.74,3.69c.08,1.3,.12,3.17,.12,5.6Z"/><path class="cls-4" d="M84.08,57.97l-.5,30.46c0,9.52,.3,15.22,.91,17.1,.17,.33,.25,.66,.25,1,0,.66-.8,1-2.41,1s-3.39-.4-5.35-1.2c-1.96-.8-2.95-1.84-2.95-3.11,1.11-7.75,1.66-18.09,1.66-31.04l-.33-12.7c-.11-1.55-.43-2.88-.96-3.98-.53-1.11-1.04-1.83-1.54-2.16l-.66-.42c-.39-.22-.58-.47-.58-.75,0-.77,1.2-1.73,3.61-2.86,2.41-1.13,4.74-1.7,7.01-1.7,.88,0,1.38,.3,1.49,.91,.22,1.44,.33,4.59,.33,9.46Z"/><path class="cls-4" d="M106.82,105.95c.77-3.87,1.16-9.31,1.16-16.31s-.03-11.13-.08-12.41-.44-2.3-1.16-3.07c-.72-.77-1.34-1.22-1.87-1.33-.53-.11-1.26-.17-2.2-.17s-1.85,.43-2.74,1.29c-.89,.86-1.41,1.73-1.58,2.62l-.33,1.33c-.17,1.66-.25,5.34-.25,11.04s.12,9.28,.37,10.75c.25,1.47,.37,2.45,.37,2.95s-.22,1-.66,1.49c-1.88,1.99-4.54,2.99-7.97,2.99-1.22,0-1.83-.36-1.83-1.08,1.11-6.64,1.66-15.11,1.66-25.4,0-3.82-.08-6.39-.25-7.72l-.33-2.66c-.06-.61-.17-1.27-.33-1.99,0-.66,.86-1,2.57-1,2.54,0,4.23,.94,5.06,2.82,.05,.22,.17,.33,.33,.33s.55-.22,1.16-.66c1.83-1.44,4.29-2.16,7.39-2.16,1.77,0,3.51,.33,5.23,1s2.91,1.55,3.57,2.66c.05,.11,.14,.17,.25,.17s.28-.11,.5-.33c2.32-2.32,5.34-3.49,9.05-3.49,4.92,0,8.3,1.77,10.13,5.31,.66,1.38,1,3.13,1,5.23s-.17,5.09-.5,8.96-.5,6.83-.5,8.88,.21,3.9,.62,5.56c.42,1.66,.83,2.85,1.25,3.57s.62,1.13,.62,1.24c0,.72-.78,1.08-2.32,1.08-3.82,0-6.47-.78-7.97-2.32-1.49-1.55-2.24-3.58-2.24-6.1s.51-5.92,1.54-10.21c1.02-4.29,1.54-7.51,1.54-9.67,0-4.37-1.77-6.56-5.31-6.56-1.49,0-2.68,.44-3.57,1.33-.89,.88-1.41,1.77-1.58,2.66l-.17,1.33c-.22,2.54-.33,5.62-.33,9.21s.05,6.41,.17,8.42c.11,2.02,.22,3.6,.33,4.73,.11,1.13,.17,1.81,.17,2.03,0,1.55-.97,2.74-2.91,3.57-1.94,.83-3.82,1.25-5.64,1.25-.94,0-1.41-.39-1.41-1.16Z"/><path class="cls-4" d="M145.75,74.15c-1.44,.06-2.48,.1-3.11,.12-.64,.03-.96-.12-.96-.46s.17-.66,.5-1c3.54-3.26,9.52-4.9,17.93-4.9,2.88,0,5.15,.25,6.81,.75l.83,.25c.66,.28,1,.58,1,.91,0,.28-.19,.5-.58,.66-1.49,.44-2.93,1.15-4.32,2.12-1.38,.97-2.08,1.65-2.08,2.03l.5,.58c1.77,1,3.14,2.57,4.11,4.73,.97,2.16,1.51,4.07,1.62,5.73l.17,2.57c0,5.48-1.52,9.99-4.57,13.53s-7.19,5.31-12.45,5.31c-2.66,0-4.95-.47-6.89-1.41-1.94-.94-3.36-2-4.27-3.2-.91-1.19-1.65-2.53-2.2-4.03-.66-2.05-1-4.16-1-6.35s.37-4.38,1.12-6.6c.75-2.21,1.6-3.85,2.57-4.9,.97-1.05,2.06-1.91,3.28-2.57,1.55-.83,2.79-1.25,3.74-1.25s1.41,.2,1.41,.58l-.5,.83c-1.22,1.44-2.09,3.32-2.61,5.64-.53,2.32-.79,4.39-.79,6.18s.22,3.58,.66,5.35c.44,1.77,.94,3.08,1.49,3.94,.55,.86,1.19,1.51,1.91,1.95,1.05,.66,2.16,1,3.32,1s2.3-.46,3.4-1.37c1.11-.91,1.91-2.12,2.41-3.61,1-2.77,1.49-5.62,1.49-8.55,0-4.65-1.18-8.24-3.53-10.79-2.35-2.54-5.82-3.82-10.42-3.82Z"/><path class="cls-4" d="M170.57,106.03c1-5.98,1.49-13.14,1.49-21.5s-.25-13.78-.75-16.27c0-.72,.83-1.08,2.49-1.08,2.54,0,4.23,.97,5.06,2.91,.05,.17,.19,.25,.42,.25s.39-.05,.5-.17c1.71-1.77,4.37-2.66,7.97-2.66s6.45,.91,8.55,2.74c2.1,1.83,3.15,4.48,3.15,7.97,0,2.1-.18,5.09-.54,8.96-.36,3.88-.54,6.75-.54,8.63,0,4.48,.75,7.72,2.24,9.71,.22,.28,.33,.55,.33,.83,0,.72-.78,1.08-2.32,1.08-6.86,0-10.29-3.04-10.29-9.13,0-2.32,.53-5.56,1.58-9.71,1.05-4.15,1.58-7.3,1.58-9.46,0-4.43-1.83-6.64-5.48-6.64-1.77,0-3.11,.53-4.03,1.58-.91,1.05-1.43,2.25-1.54,3.61-.11,1.36-.17,3.92-.17,7.68,0,5.75,.19,10.76,.58,15.02l.17,1.83c0,1.55-1.01,2.75-3.03,3.61-2.02,.86-3.76,1.29-5.23,1.29s-2.2-.36-2.2-1.08Z"/><path class="cls-4" d="M58.52,155.61c1.05,0,1.58,1.33,1.58,3.98s-.5,5.04-1.49,7.14c-1,2.1-2.2,3.73-3.61,4.9-1.41,1.16-3,2.1-4.77,2.82-5.92,2.6-11.46,2.54-16.6-.17-2.6-1.38-4.59-3.03-5.98-4.94-1.38-1.91-2.49-4.19-3.32-6.85-1.27-3.98-1.91-8.16-1.91-12.53s.42-8.47,1.25-12.28c.83-3.82,2.1-7.46,3.82-10.92,1.71-3.46,4.15-6.24,7.3-8.34,3.15-2.1,6.81-3.15,10.96-3.15,1.77,0,3.61,.29,5.52,.87,1.91,.58,3.47,1.3,4.69,2.16,1.22,.86,2.29,2.17,3.24,3.94,.94,1.77,1.41,3.85,1.41,6.23,0,2.55-.61,4.84-1.83,6.89-.55,.94-1.44,1.78-2.66,2.53-1.22,.75-2.66,1.12-4.32,1.12-2.54,0-4.34-1.13-5.39-3.4-.44-.88-.66-1.85-.66-2.9s.36-1.66,1.08-1.83c.78-.22,1.49-.83,2.16-1.83s1-2.16,1-3.49c0-1.05-.28-1.96-.83-2.74-1.05-1.38-2.57-2.08-4.56-2.08s-3.8,.91-5.44,2.74-2.86,4.12-3.69,6.89c-1.66,5.53-2.49,10.62-2.49,15.27s.64,8.38,1.91,11.21c1.55,3.49,3.51,5.81,5.89,6.97,1.49,.72,3.21,1.08,5.15,1.08,3.26,0,6.2-1.47,8.8-4.4,1.11-1.16,2.02-2.54,2.74-4.15,.28-.5,.64-.75,1.08-.75Z"/><path class="cls-4" d="M71.13,143.32c-1.44,.06-2.48,.1-3.11,.12-.64,.03-.95-.12-.95-.46s.17-.66,.5-1c3.54-3.26,9.52-4.9,17.93-4.9,2.88,0,5.15,.25,6.81,.75l.83,.25c.66,.28,1,.58,1,.91,0,.28-.2,.5-.58,.66-1.49,.44-2.93,1.15-4.32,2.12-1.38,.97-2.07,1.65-2.07,2.03l.5,.58c1.77,1,3.14,2.57,4.11,4.73,.97,2.16,1.51,4.07,1.62,5.73l.17,2.57c0,5.48-1.52,9.99-4.56,13.53-3.04,3.54-7.19,5.31-12.45,5.31-2.66,0-4.95-.47-6.89-1.41-1.94-.94-3.36-2-4.28-3.2-.91-1.19-1.65-2.53-2.2-4.03-.66-2.05-1-4.16-1-6.35s.37-4.38,1.12-6.6,1.6-3.85,2.57-4.9c.97-1.05,2.06-1.91,3.28-2.57,1.55-.83,2.79-1.25,3.73-1.25s1.41,.19,1.41,.58l-.5,.83c-1.22,1.44-2.09,3.32-2.62,5.64-.53,2.32-.79,4.39-.79,6.18s.22,3.58,.66,5.35c.44,1.77,.94,3.08,1.49,3.94,.55,.86,1.19,1.51,1.91,1.95,1.05,.66,2.16,1,3.32,1s2.29-.46,3.4-1.37c1.11-.91,1.91-2.12,2.41-3.61,1-2.77,1.49-5.62,1.49-8.55,0-4.65-1.18-8.24-3.53-10.79-2.35-2.54-5.82-3.82-10.42-3.82Z"/><path class="cls-4" d="M104.34,143.32c-1.44,.06-2.48,.1-3.11,.12-.64,.03-.96-.12-.96-.46s.17-.66,.5-1c3.54-3.26,9.52-4.9,17.93-4.9,2.88,0,5.15,.25,6.81,.75l.83,.25c.66,.28,1,.58,1,.91,0,.28-.19,.5-.58,.66-1.49,.44-2.93,1.15-4.32,2.12-1.38,.97-2.08,1.65-2.08,2.03l.5,.58c1.77,1,3.14,2.57,4.11,4.73,.97,2.16,1.51,4.07,1.62,5.73l.17,2.57c0,5.48-1.52,9.99-4.57,13.53-3.04,3.54-7.19,5.31-12.45,5.31-2.66,0-4.95-.47-6.89-1.41-1.94-.94-3.36-2-4.28-3.2-.91-1.19-1.65-2.53-2.2-4.03-.66-2.05-1-4.16-1-6.35s.37-4.38,1.12-6.6c.75-2.21,1.6-3.85,2.57-4.9,.97-1.05,2.06-1.91,3.28-2.57,1.55-.83,2.79-1.25,3.73-1.25s1.41,.19,1.41,.58l-.5,.83c-1.22,1.44-2.09,3.32-2.61,5.64-.53,2.32-.79,4.39-.79,6.18s.22,3.58,.66,5.35c.44,1.77,.94,3.08,1.49,3.94,.55,.86,1.19,1.51,1.91,1.95,1.05,.66,2.16,1,3.32,1s2.3-.46,3.4-1.37c1.11-.91,1.91-2.12,2.41-3.61,1-2.77,1.49-5.62,1.49-8.55,0-4.65-1.18-8.24-3.53-10.79-2.35-2.54-5.82-3.82-10.42-3.82Z"/><path class="cls-4" d="M146.5,147.72c-.22,.22-.33,.46-.33,.71s.51,.49,1.54,.71c1.02,.22,2.14,.83,3.36,1.83,1.22,1,2.13,2.08,2.74,3.24,1.16,2.27,1.8,4.26,1.91,5.98l.08,1.08c.28,6.47,1.47,10.9,3.57,13.28,.28,.39,.41,.66,.41,.83,0,.61-.78,.91-2.32,.91-4.65,0-7.61-.97-8.88-2.91-.66-.77-1-3.18-1-7.22v-2.07c0-5.15-.64-8.71-1.91-10.71-.66-.94-1.48-1.41-2.45-1.41s-1.98,.84-3.03,2.53c-1.05,1.69-1.58,3.11-1.58,4.27,0,4.65,.11,7.88,.33,9.71s.33,2.77,.33,2.82c0,1.61-1.09,2.85-3.28,3.74-2.19,.88-4.25,1.33-6.18,1.33-.72,0-1.08-.44-1.08-1.33v-.33c1.33-6.81,1.99-17.54,1.99-32.21,0-4.81-.11-8.88-.33-12.2l-.17-1.66c-.11-1.55-.43-2.88-.95-3.98-.53-1.11-1.04-1.83-1.54-2.16l-.66-.42c-.39-.22-.58-.47-.58-.75,0-.88,1.33-1.88,3.98-2.99,2.66-1.11,4.95-1.66,6.89-1.66,.88,.06,1.36,.39,1.41,1,.28,2.21,.42,6.76,.42,13.65s-.17,12.38-.5,16.48c0,.66,.11,1,.33,1s.57-.32,1.04-.95c.47-.64,1.3-1.65,2.49-3.03,1.19-1.38,2.79-2.99,4.81-4.81,2.02-1.83,3.65-2.74,4.9-2.74s2.48,.3,3.69,.91,1.83,1.19,1.83,1.74l-.91,.58c-3.15,1.16-6.61,3.57-10.38,7.22Z"/><path class="cls-4" d="M161.61,172.12l.91-19.34c0-4.59-.53-7.72-1.58-9.38-.33-.55-.72-.97-1.16-1.25-.33-.11-.5-.33-.5-.66,0-1,1.41-1.96,4.23-2.91,2.82-.94,4.88-1.41,6.18-1.41s1.98,.33,2.03,1c0,1.11-.15,4.25-.46,9.42-.3,5.17-.46,10.61-.46,16.31s.33,9.24,1,10.62c.17,.28,.25,.55,.25,.83,0,.72-1.05,1.08-3.15,1.08s-4.26-.55-6.47-1.66c-.55-.28-.83-1.16-.83-2.66Zm6.64-41.92l-1.99-.08c-1.49,0-2.46,.36-2.91,1.08-.11,.17-.25,.25-.42,.25-.72,0-1.08-1.23-1.08-3.69s.37-4.03,1.12-4.69c.75-.66,2.05-1,3.9-1s3.11,.32,3.78,.96c.66,.64,1,1.7,1,3.2s-.25,2.53-.75,3.11c-.5,.58-1.38,.87-2.66,.87Z"/><path class="cls-4" d="M201.45,164.57c0,2.1-.43,3.94-1.29,5.52s-1.83,2.74-2.9,3.49c-1.08,.75-2.34,1.34-3.78,1.78-1.83,.55-3.57,.83-5.23,.83-4.65,0-8.08-1.74-10.29-5.23-2.21-3.49-3.32-7.93-3.32-13.32s1.37-10.19,4.11-14.4c2.74-4.21,6.85-6.31,12.33-6.31,4.98,0,8.35,1.74,10.12,5.23,.72,1.33,1.08,2.59,1.08,3.78s-.06,2.13-.17,2.82c-.11,.69-.5,1.73-1.16,3.11s-1.55,2.63-2.66,3.73-2.85,2.16-5.23,3.15c-2.38,1-5.18,1.66-8.38,1.99-.44,0-.66,.19-.66,.58,0,.5,.18,1.23,.54,2.2,.36,.97,.76,1.78,1.2,2.45,1.22,1.55,3.02,2.32,5.39,2.32s4.4-.77,6.06-2.32c.88-.83,1.61-1.85,2.16-3.07,.22-.44,.51-.66,.87-.66s.65,.3,.87,.91c.22,.61,.33,1.08,.33,1.41Zm-18.09-11.04l.08,2.07c0,.33,.22,.5,.66,.5,1.77-.17,3.32-.62,4.65-1.37s2.32-1.59,2.99-2.53c1.33-2.05,2.04-3.82,2.16-5.31l.08-1c0-2.99-1.19-4.48-3.57-4.48-1.77,0-3.21,.78-4.32,2.32-1.83,2.44-2.74,5.7-2.74,9.79Z"/><path class="cls-4" d="M229.58,163.24c0,2.38-.46,4.46-1.37,6.22-.91,1.77-1.95,3.07-3.11,3.9-1.16,.83-2.54,1.49-4.15,1.99-2.1,.66-4.01,1-5.73,1-3.6,0-6.59-.71-8.96-2.12-2.38-1.41-3.57-3.67-3.57-6.77,0-1.83,.5-3.32,1.49-4.48,1.55-1.71,3.4-2.57,5.56-2.57,.66,0,1,.3,1,.91,0,.06-.12,.49-.37,1.29-.25,.8-.37,1.81-.37,3.03s.48,2.3,1.45,3.24c.97,.94,2.14,1.41,3.53,1.41s2.49-.23,3.32-.71c.83-.47,1.41-1.06,1.74-1.79,.5-1,.75-1.94,.75-2.82,0-1.6-.8-2.99-2.41-4.15-1.61-1.16-3.38-2.08-5.31-2.74-1.94-.66-3.71-1.77-5.31-3.32-1.61-1.55-2.41-3.49-2.41-5.81,0-3.98,1.26-6.97,3.78-8.96,2.52-1.99,5.93-2.99,10.25-2.99,1.88,0,3.86,.26,5.93,.79,2.08,.53,3.11,1.41,3.11,2.66s-.21,2.39-.62,3.44c-.42,1.05-.93,1.58-1.54,1.58-.33,0-.55-.12-.66-.37-.11-.25-.3-.54-.58-.87-.28-.33-.94-.76-1.99-1.29-1.05-.52-1.95-.79-2.7-.79s-1.25,.01-1.49,.04c-.25,.03-.68,.11-1.29,.25-.61,.14-1.16,.35-1.66,.62-1.27,.72-1.91,1.77-1.91,3.15,0,.89,.19,1.54,.58,1.95,.39,.41,.69,.73,.91,.95,.22,.22,.61,.49,1.16,.79,.55,.3,.94,.51,1.16,.62,.22,.11,.72,.35,1.49,.71,.77,.36,1.27,.6,1.49,.71,5.86,2.77,8.8,6.53,8.8,11.29Z"/></svg>