<?xml version="1.0" encoding="UTF-8"?><svg id="salmon_cookie_logo" xmlns="http://www.w3.org/2000/svg" viewBox="0 0 269.69 176.94"><defs><style>.cls-1{fill:#94618e;}</style></defs><path class="cls-1" d="M139.21,6.63c7.18,1.4,13.99,4.77,19.44,9.73,5.52,4.97,9.72,11.51,11.93,18.78,0,0-3.26-1.81-3.26-1.81,12.82-4.57,27.37-4.43,40.14,.46,22.27,8.16,37.73,30.1,39.35,53.78,.84,12.79-3.06,25.79-10.7,36.06,0,0-2.03-8.73-2.03-8.73,12.29,7.67,20.27,22.01,19.53,36.46-.2,4.61-1.23,9.12-3.09,13.15-.15,.33-.54,.47-.87,.32-.25-.11-.39-.37-.38-.63,.4-8.26-1.33-16.38-5.32-23.4-3.72-6.56-9.29-11.97-15.97-15.28-2.85-1.42-4.02-4.88-2.6-7.74,8.03-13.35,11.07-29.91,6.67-45.02-7.65-26.41-36.78-41.74-63.19-34.49-1.36,.47-2.88-.3-3.24-1.71-2.81-13.41-13.38-24.78-26.7-28.68-.34-.1-.53-.46-.43-.8,.09-.32,.42-.51,.74-.45h0Z"/><g><circle class="cls-1" cx="203.84" cy="12.21" r="10.68"/><path class="cls-1" d="M203.84,24.42c-.96,0-1.94-.12-2.92-.36h0c-3.17-.78-5.84-2.75-7.53-5.54-1.69-2.79-2.19-6.07-1.41-9.24,.78-3.17,2.75-5.84,5.54-7.53,2.79-1.69,6.07-2.19,9.24-1.41,6.53,1.61,10.54,8.24,8.93,14.77-1.37,5.56-6.37,9.29-11.85,9.29Zm-2.19-3.32c4.9,1.2,9.87-1.8,11.08-6.7,1.21-4.9-1.8-9.87-6.7-11.08-4.9-1.21-9.87,1.8-11.08,6.7-.58,2.37-.21,4.83,1.05,6.93,1.27,2.09,3.27,3.57,5.64,4.15h0Z"/></g><g><circle class="cls-1" cx="260.66" cy="112" r="6.41"/><path class="cls-1" d="M260.67,119.33c-.59,0-1.18-.07-1.76-.22-1.9-.47-3.5-1.65-4.52-3.32s-1.31-3.64-.84-5.54,1.65-3.5,3.32-4.52c1.67-1.01,3.64-1.31,5.54-.84,1.9,.47,3.5,1.65,4.52,3.32,1.01,1.67,1.31,3.64,.84,5.54-.47,1.9-1.65,3.5-3.32,4.52-1.16,.7-2.46,1.06-3.78,1.06Zm-.01-12.82c-2.47,0-4.72,1.68-5.33,4.18-.72,2.94,1.08,5.92,4.02,6.65,1.43,.35,2.9,.12,4.16-.63,1.26-.76,2.14-1.96,2.49-3.39s.13-2.9-.63-4.16c-.76-1.26-1.96-2.14-3.39-2.49-.44-.11-.88-.16-1.31-.16Z"/></g><g><circle class="cls-1" cx="252.6" cy="28.62" r="14.95"/><path class="cls-1" d="M252.63,45.72c-1.37,0-2.75-.17-4.12-.5h0c-9.15-2.25-14.76-11.53-12.51-20.68,1.09-4.43,3.84-8.17,7.75-10.54,3.91-2.36,8.5-3.06,12.93-1.97,9.15,2.25,14.76,11.53,12.51,20.68-1.09,4.43-3.84,8.17-7.75,10.54-2.7,1.63-5.73,2.47-8.81,2.47Zm-.05-29.92c-2.31,0-4.58,.63-6.61,1.85-2.93,1.77-4.99,4.58-5.81,7.9-.82,3.32-.29,6.77,1.48,9.7,1.77,2.93,4.58,4.99,7.9,5.81h0c3.33,.82,6.77,.29,9.7-1.48,2.93-1.77,4.99-4.58,5.81-7.9,1.69-6.86-2.52-13.82-9.38-15.51-1.02-.25-2.06-.38-3.09-.38Z"/></g><g><path class="cls-1" d="M28.3,59.46l.33-2.57c0-2.54-1-4.18-2.99-4.9-1.55-.5-2.74-.75-3.57-.75h-.08c-1.66,0-3.1,.26-4.32,.79-1.22,.53-2.1,1.18-2.66,1.95-1.16,1.61-1.83,3.29-1.99,5.06,0,2.1,.94,3.92,2.82,5.44,1.88,1.52,4.16,2.85,6.85,3.98,2.68,1.13,5.37,2.37,8.05,3.69,2.68,1.33,4.97,3.24,6.85,5.73,1.88,2.49,2.82,5.48,2.82,8.96,0,6.81-2.15,11.9-6.43,15.27s-9.16,5.06-14.61,5.06-9.96-1.23-13.53-3.69c-3.57-2.46-5.35-5.77-5.35-9.92v-.08c0-2.05,.32-3.83,.95-5.35,.64-1.52,1.4-2.64,2.28-3.36,1.83-1.49,3.49-2.3,4.98-2.41l1-.08c1.55,0,2.96,.37,4.23,1.12,1.27,.75,1.91,1.78,1.91,3.11,0,.66-.36,1.22-1.08,1.66-.72,.44-1.34,1.11-1.87,1.99-.53,.89-.82,1.63-.87,2.24l-.17,.91c0,3.38,1.55,5.62,4.65,6.72,1.11,.39,1.99,.58,2.66,.58,3.04,0,5.49-.91,7.35-2.74,1.85-1.83,2.78-4.15,2.78-6.97,0-3.38-1.44-6.11-4.32-8.22-2.16-1.55-4.5-2.85-7.01-3.9-2.52-1.05-4.22-1.8-5.1-2.24-.89-.44-1.83-.97-2.82-1.58-1-.61-2.1-1.46-3.32-2.57-2.66-2.32-3.98-5.46-3.98-9.42s1.08-7.29,3.24-10c3.87-4.92,9.68-7.39,17.43-7.39,4.09,0,7.55,.79,10.38,2.37s4.23,3.75,4.23,6.52c0,1.99-.57,3.65-1.7,4.98s-2.59,1.99-4.36,1.99c-.83,0-1.65-.17-2.45-.5-.8-.33-1.2-.83-1.2-1.49Z"/><path class="cls-1" d="M19.38,107.69c-5.53,0-10.17-1.27-13.81-3.78-3.7-2.55-5.57-6.02-5.57-10.33,0-2.19,.33-4.05,.99-5.63,.66-1.59,1.48-2.79,2.43-3.56,1.9-1.55,3.67-2.4,5.26-2.52l.99-.08h.01c1.67,0,3.17,.4,4.52,1.19,1.43,.84,2.16,2.03,2.16,3.54,0,.58-.23,1.42-1.32,2.08-.65,.4-1.22,1.01-1.7,1.82-.49,.82-.75,1.5-.8,2.03l-.17,.96c0,3.08,1.42,5.13,4.32,6.16,1.04,.37,1.88,.55,2.49,.55,2.89,0,5.25-.87,7-2.6,1.75-1.72,2.63-3.95,2.63-6.62,0-3.24-1.34-5.79-4.11-7.81-2.11-1.52-4.44-2.81-6.91-3.84-2.56-1.07-4.24-1.8-5.13-2.25-.89-.45-1.86-.99-2.86-1.6-1.02-.62-2.16-1.51-3.4-2.63-2.75-2.41-4.15-5.7-4.15-9.79s1.13-7.52,3.35-10.31c3.95-5.03,9.95-7.58,17.82-7.58,4.16,0,7.73,.82,10.62,2.43,2.98,1.67,4.49,4,4.49,6.95,0,2.1-.61,3.89-1.82,5.3-1.23,1.44-2.82,2.17-4.74,2.17-.89,0-1.78-.18-2.64-.54-1.25-.52-1.51-1.35-1.51-1.96v-.06s.34-2.57,.34-2.57c0-2.27-.87-3.72-2.66-4.36-1.48-.47-2.63-.72-3.4-.72-1.67,0-3.05,.25-4.2,.75-1.13,.49-1.95,1.09-2.45,1.78-1.11,1.53-1.75,3.15-1.9,4.82,0,1.92,.86,3.57,2.64,5,1.83,1.49,4.1,2.8,6.73,3.91,2.67,1.13,5.39,2.38,8.08,3.71,2.74,1.36,5.1,3.33,7.02,5.88,1.94,2.57,2.92,5.68,2.92,9.26,0,6.94-2.23,12.21-6.62,15.67-4.36,3.43-9.38,5.17-14.92,5.17Zm-9.67-24.9l-.95,.08c-1.39,.1-2.97,.88-4.71,2.3-.82,.67-1.54,1.73-2.14,3.17-.61,1.45-.92,3.19-.92,5.16,0,4.1,1.68,7.21,5.14,9.59,3.47,2.39,7.92,3.61,13.25,3.61s10.12-1.67,14.3-4.96c4.14-3.26,6.24-8.27,6.24-14.88,0-3.36-.92-6.27-2.72-8.66-1.83-2.42-4.07-4.3-6.67-5.58-2.67-1.32-5.37-2.56-8.02-3.68-2.72-1.15-5.06-2.51-6.97-4.06-2-1.61-3.01-3.57-3.01-5.82,.18-1.9,.88-3.69,2.09-5.36,.6-.84,1.57-1.56,2.86-2.12,1.27-.55,2.79-.83,4.51-.83,.97,0,2.19,.25,3.81,.77,2.22,.8,3.33,2.61,3.33,5.37l-.33,2.6c0,.28,.12,.68,.9,1,.74,.31,1.5,.46,2.26,.46,1.63,0,2.93-.59,3.98-1.82,1.05-1.23,1.58-2.79,1.58-4.65,0-2.59-1.3-4.58-3.98-6.08-2.73-1.53-6.14-2.3-10.13-2.3-7.55,0-13.28,2.42-17.04,7.2-2.08,2.61-3.13,5.87-3.13,9.69s1.28,6.83,3.81,9.04c1.19,1.09,2.29,1.93,3.25,2.52,.98,.6,1.92,1.12,2.79,1.56,.86,.43,2.57,1.18,5.07,2.23,2.54,1.06,4.93,2.39,7.11,3.96,3,2.2,4.52,5.1,4.52,8.62,0,2.95-.99,5.41-2.93,7.33-1.94,1.91-4.53,2.88-7.7,2.88-.73,0-1.65-.2-2.82-.61-3.31-1.18-4.98-3.6-4.98-7.2l.17-1c.06-.65,.36-1.45,.93-2.41,.56-.95,1.25-1.68,2.03-2.16,.57-.35,.84-.75,.84-1.23,0-1.15-.54-2.03-1.66-2.68-1.19-.7-2.53-1.05-3.98-1.05Z"/></g><g><path class="cls-1" d="M70.3,80.55l-.17,10.62c0,7.36,.8,11.79,2.41,13.28,.22,.22,.33,.47,.33,.75,0,.83-1.78,1.25-5.35,1.25s-5.46-1.05-5.69-3.15c-.06-.5-.08-1.52-.08-3.07l.33-13.28c0-.39-.22-.58-.66-.58-2.66,0-5.15,.75-7.47,2.24s-3.49,3.4-3.49,5.73c0,1.22,.33,2.24,1,3.07s1.48,1.25,2.45,1.25,1.77-.19,2.41-.58c.63-.39,1.01-.61,1.12-.66,.94,.11,1.41,1.09,1.41,2.95s-.86,3.35-2.57,4.48c-1.72,1.13-3.52,1.7-5.4,1.7s-3.5-.33-4.86-1-2.34-1.41-2.95-2.24c-.61-.83-1.11-1.77-1.49-2.82-.39-1.27-.58-2.38-.58-3.32,0-3.87,1.22-6.97,3.65-9.3,2.43-2.32,5.56-3.98,9.38-4.98,5.04-1,7.66-1.91,7.89-2.74,.17-.61,.25-1.63,.25-3.07,0-2.93-1.49-4.4-4.48-4.4-1.27,0-2.41,.4-3.4,1.2-1,.8-1.49,1.81-1.49,3.03l.5,1.99c-.11,.94-1.11,1.49-2.99,1.66l-.91,.08c-1.66,0-2.98-.42-3.94-1.25-.97-.83-1.45-1.94-1.45-3.32,0-.88,.29-1.87,.87-2.95,.58-1.08,1.31-1.95,2.2-2.61,.88-.66,2.25-1.26,4.11-1.78,1.85-.53,3.64-.79,5.35-.79s3.04,.06,3.98,.17c.94,.11,2.23,.37,3.86,.79,1.63,.41,2.99,1.2,4.07,2.37s1.66,2.39,1.74,3.69c.08,1.3,.12,3.17,.12,5.6Z"/><path class="cls-1" d="M50.88,107.03c-1.95,0-3.66-.35-5.08-1.05-1.42-.7-2.48-1.5-3.13-2.39-.63-.86-1.16-1.85-1.56-2.95-.41-1.34-.61-2.5-.61-3.49,0-4,1.28-7.25,3.81-9.66,2.49-2.37,5.71-4.09,9.6-5.1,6.88-1.36,7.48-2.23,7.53-2.39,.15-.56,.23-1.55,.23-2.94,0-2.66-1.27-3.9-3.98-3.9-1.16,0-2.17,.36-3.09,1.09-.86,.7-1.29,1.54-1.31,2.58l.5,2.02v.09c-.15,1.2-1.31,1.91-3.45,2.1l-.91,.08h-.01c-1.82,0-3.25-.46-4.3-1.36-1.08-.92-1.63-2.17-1.63-3.7,0-.96,.31-2.04,.93-3.18,.61-1.14,1.4-2.07,2.34-2.78,.94-.71,2.34-1.32,4.27-1.87,1.89-.54,3.74-.81,5.49-.81s3.08,.06,4.04,.17c.97,.12,2.29,.38,3.92,.8,1.72,.44,3.17,1.28,4.31,2.51,1.15,1.24,1.79,2.59,1.88,4,.08,1.31,.13,3.21,.13,5.63h0s-.17,10.63-.17,10.63c0,8.94,1.22,11.95,2.25,12.91,.33,.33,.49,.71,.49,1.11,0,1.22-1.75,1.75-5.85,1.75-3.85,0-5.93-1.21-6.18-3.6-.06-.51-.09-1.54-.09-3.12l.33-13.29s-.03-.07-.16-.07c-2.55,0-4.97,.73-7.2,2.16-2.19,1.41-3.26,3.14-3.26,5.31,0,1.11,.29,2.01,.89,2.76,.57,.71,1.24,1.06,2.06,1.06,.87,0,1.59-.17,2.15-.51,.66-.4,1.04-.63,1.16-.69l.13-.07,.15,.02c1.23,.15,1.85,1.3,1.85,3.44,0,2.02-.94,3.67-2.8,4.9-1.79,1.18-3.7,1.78-5.67,1.78Zm6.81-34.87c3.26,0,4.98,1.69,4.98,4.9,0,1.5-.09,2.55-.27,3.2-.2,.76-1.35,1.73-8.27,3.1-3.69,.96-6.77,2.6-9.13,4.85-2.32,2.21-3.5,5.22-3.5,8.94,0,.89,.19,1.96,.56,3.17,.36,.98,.84,1.88,1.42,2.67,.56,.76,1.49,1.46,2.76,2.09,1.28,.63,2.84,.95,4.64,.95s3.49-.54,5.12-1.62c1.58-1.04,2.35-2.37,2.35-4.07,0-1.43-.28-2.25-.83-2.42-.18,.1-.49,.29-.94,.56-.71,.43-1.61,.65-2.67,.65-1.12,0-2.08-.48-2.84-1.43-.73-.92-1.11-2.06-1.11-3.38,0-2.49,1.25-4.56,3.72-6.15,2.4-1.54,5-2.32,7.74-2.32,.72,0,1.16,.41,1.16,1.08l-.33,13.29c0,1.51,.03,2.53,.08,3,.07,.67,.28,2.71,5.19,2.71,4.64,0,4.85-.74,4.85-.75,0-.09-.02-.23-.19-.39-1.71-1.59-2.55-6.06-2.55-13.63l.17-10.63c0-2.41-.04-4.28-.12-5.57-.08-1.18-.62-2.32-1.61-3.39-1.01-1.08-2.29-1.83-3.82-2.22-1.59-.41-2.87-.67-3.79-.78-.92-.11-2.24-.16-3.93-.16s-3.41,.26-5.22,.77c-1.79,.51-3.11,1.08-3.95,1.7-.82,.62-1.51,1.44-2.06,2.45-.54,1-.81,1.91-.81,2.71,0,1.24,.42,2.2,1.28,2.94,.87,.75,2.09,1.12,3.62,1.12l.87-.08c1.07-.09,2.35-.37,2.52-1.14l-.49-2.01c0-1.37,.57-2.52,1.68-3.42,1.08-.87,2.33-1.31,3.72-1.31Z"/></g><g><path class="cls-1" d="M84.08,57.97l-.5,30.46c0,9.52,.3,15.22,.91,17.1,.17,.33,.25,.66,.25,1,0,.66-.8,1-2.41,1s-3.39-.4-5.35-1.2c-1.96-.8-2.95-1.84-2.95-3.11,1.11-7.75,1.66-18.09,1.66-31.04l-.33-12.7c-.11-1.55-.43-2.88-.96-3.98-.53-1.11-1.04-1.83-1.54-2.16l-.66-.42c-.39-.22-.58-.47-.58-.75,0-.77,1.2-1.73,3.61-2.86,2.41-1.13,4.74-1.7,7.01-1.7,.88,0,1.38,.3,1.49,.91,.22,1.44,.33,4.59,.33,9.46Z"/><path class="cls-1" d="M82.34,108.02c-1.66,0-3.52-.42-5.54-1.24-2.16-.88-3.26-2.09-3.26-3.58,1.1-7.77,1.66-18.19,1.66-31.04l-.33-12.69c-.11-1.46-.41-2.74-.91-3.78-.6-1.27-1.07-1.76-1.36-1.96l-.65-.41c-.67-.38-.82-.85-.82-1.17,0-1.02,1.2-2.04,3.9-3.32,2.47-1.16,4.9-1.75,7.23-1.75,1.52,0,1.9,.83,1.99,1.32,.23,1.48,.34,4.68,.34,9.55h0s-.5,30.47-.5,30.47c0,9.42,.3,15.12,.89,16.94,.17,.33,.27,.74,.27,1.15,0,.99-.98,1.5-2.91,1.5Zm-.08-59.93c-2.18,0-4.47,.56-6.8,1.65-3.08,1.46-3.32,2.21-3.32,2.41,0,.06,.09,.17,.33,.31l.68,.43c.59,.39,1.15,1.17,1.72,2.37,.55,1.16,.89,2.56,1,4.16l.33,12.72c0,12.92-.56,23.38-1.67,31.13,0,.97,.89,1.87,2.64,2.58,1.9,.77,3.63,1.17,5.16,1.17,1.41,0,1.91-.27,1.91-.5,0-.26-.06-.51-.2-.77-.66-2.02-.97-7.66-.97-17.32l.5-30.47c0-4.81-.11-7.97-.33-9.38-.03-.14-.09-.49-1-.49Z"/></g><g><path class="cls-1" d="M106.82,105.95c.77-3.87,1.16-9.31,1.16-16.31s-.03-11.13-.08-12.41-.44-2.3-1.16-3.07c-.72-.77-1.34-1.22-1.87-1.33-.53-.11-1.26-.17-2.2-.17s-1.85,.43-2.74,1.29c-.89,.86-1.41,1.73-1.58,2.62l-.33,1.33c-.17,1.66-.25,5.34-.25,11.04s.12,9.28,.37,10.75c.25,1.47,.37,2.45,.37,2.95s-.22,1-.66,1.49c-1.88,1.99-4.54,2.99-7.97,2.99-1.22,0-1.83-.36-1.83-1.08,1.11-6.64,1.66-15.11,1.66-25.4,0-3.82-.08-6.39-.25-7.72l-.33-2.66c-.06-.61-.17-1.27-.33-1.99,0-.66,.86-1,2.57-1,2.54,0,4.23,.94,5.06,2.82,.05,.22,.17,.33,.33,.33s.55-.22,1.16-.66c1.83-1.44,4.29-2.16,7.39-2.16,1.77,0,3.51,.33,5.23,1s2.91,1.55,3.57,2.66c.05,.11,.14,.17,.25,.17s.28-.11,.5-.33c2.32-2.32,5.34-3.49,9.05-3.49,4.92,0,8.3,1.77,10.13,5.31,.66,1.38,1,3.13,1,5.23s-.17,5.09-.5,8.96-.5,6.83-.5,8.88,.21,3.9,.62,5.56c.42,1.66,.83,2.85,1.25,3.57s.62,1.13,.62,1.24c0,.72-.78,1.08-2.32,1.08-3.82,0-6.47-.78-7.97-2.32-1.49-1.55-2.24-3.58-2.24-6.1s.51-5.92,1.54-10.21c1.02-4.29,1.54-7.51,1.54-9.67,0-4.37-1.77-6.56-5.31-6.56-1.49,0-2.68,.44-3.57,1.33-.89,.88-1.41,1.77-1.58,2.66l-.17,1.33c-.22,2.54-.33,5.62-.33,9.21s.05,6.41,.17,8.42c.11,2.02,.22,3.6,.33,4.73,.11,1.13,.17,1.81,.17,2.03,0,1.55-.97,2.74-2.91,3.57-1.94,.83-3.82,1.25-5.64,1.25-.94,0-1.41-.39-1.41-1.16Z"/><path class="cls-1" d="M134.21,107.94c-3.94,0-6.74-.83-8.33-2.48-1.58-1.64-2.38-3.81-2.38-6.45s.52-6.03,1.55-10.33c1.01-4.23,1.52-7.44,1.52-9.55,0-4.08-1.57-6.06-4.81-6.06-1.37,0-2.42,.39-3.21,1.18-.81,.81-1.29,1.61-1.44,2.39l-.16,1.3c-.22,2.5-.33,5.58-.33,9.15s.05,6.4,.17,8.4c.11,2.06,.22,3.6,.33,4.71,.15,1.55,.17,1.93,.17,2.08,0,1.76-1.08,3.12-3.21,4.03-1.99,.85-3.96,1.29-5.84,1.29-1.72,0-1.91-1.16-1.91-1.66v-.1c.77-3.83,1.16-9.28,1.16-16.21s-.03-11.1-.08-12.39c-.05-1.16-.39-2.06-1.03-2.75-.8-.86-1.32-1.12-1.61-1.18-.49-.1-1.2-.16-2.09-.16-.8,0-1.61,.39-2.39,1.15-.81,.78-1.29,1.57-1.43,2.35l-.34,1.36c-.15,1.56-.23,5.26-.23,10.92s.12,9.24,.37,10.66c.26,1.51,.38,2.5,.38,3.03,0,.62-.27,1.24-.79,1.83-1.98,2.1-4.79,3.16-8.34,3.16-2.02,0-2.33-.99-2.33-1.58,1.1-6.66,1.66-15.18,1.66-25.4,0-3.78-.08-6.36-.24-7.66l-.33-2.66c-.06-.61-.17-1.26-.32-1.94v-.11c-.01-1.5,2.3-1.5,3.06-1.5,2.74,0,4.59,1.04,5.51,3.09,.12-.07,.36-.21,.76-.5,1.89-1.49,4.48-2.25,7.68-2.25,1.82,0,3.64,.35,5.41,1.03,1.72,.67,2.96,1.57,3.7,2.68,.02-.02,.05-.05,.08-.08,2.41-2.41,5.57-3.63,9.4-3.63,5.1,0,8.66,1.88,10.57,5.58,.7,1.46,1.05,3.29,1.05,5.46s-.17,5.14-.5,9.01c-.33,3.84-.5,6.81-.5,8.84s.2,3.83,.61,5.44c.4,1.61,.8,2.77,1.19,3.44,.64,1.11,.69,1.31,.69,1.49,0,1.05-.95,1.58-2.82,1.58Zm-12.45-35.86c2.65,0,5.81,1.22,5.81,7.06,0,2.19-.52,5.48-1.55,9.79-1.01,4.22-1.52,7.62-1.52,10.09s.71,4.31,2.1,5.75c1.39,1.44,3.95,2.17,7.61,2.17,.55,0,1.82-.06,1.82-.58,0,.06-.08-.17-.56-.99-.44-.76-.87-1.97-1.3-3.7-.42-1.69-.64-3.6-.64-5.68s.17-5.05,.5-8.92c.33-3.84,.5-6.84,.5-8.92s-.32-3.7-.95-5.01c-1.74-3.38-4.91-5.03-9.68-5.03-3.55,0-6.48,1.12-8.69,3.34-.73,.72-1.29,.56-1.55,.03-.58-.97-1.7-1.79-3.3-2.41-1.65-.64-3.35-.96-5.05-.96-2.97,0-5.35,.69-7.08,2.05-.88,.64-1.22,.77-1.47,.77-.4,0-.71-.27-.82-.71-.72-1.62-2.23-2.44-4.58-2.44-1.54,0-2.02,.28-2.07,.46,.16,.7,.27,1.37,.33,1.98l.33,2.64c.17,1.36,.25,3.9,.25,7.78,0,10.27-.56,18.85-1.67,25.48,0,.06,0,.5,1.33,.5,3.27,0,5.83-.95,7.61-2.83,.35-.39,.53-.78,.53-1.15,0-.46-.12-1.43-.37-2.86-.26-1.5-.38-5.04-.38-10.83s.08-9.42,.25-11.09l.34-1.4c.18-.96,.76-1.92,1.71-2.85,.98-.95,2.02-1.43,3.09-1.43,.96,0,1.74,.06,2.3,.18,.64,.14,1.33,.62,2.13,1.48,.8,.86,1.24,2,1.3,3.39,.06,1.3,.08,5.49,.08,12.43s-.39,12.47-1.16,16.36c0,.26,.05,.61,.91,.61,1.75,0,3.58-.41,5.45-1.21,1.75-.75,2.6-1.77,2.6-3.11,0-.14-.03-.59-.16-1.98-.11-1.12-.22-2.68-.33-4.75-.11-2.02-.17-4.78-.17-8.45s.11-6.71,.33-9.26l.17-1.35c.19-1.01,.77-2,1.72-2.95,.98-.98,2.3-1.47,3.92-1.47Zm-7.21-1.09s0,0,0,0c0,0,0,0,0,0Zm-17.7-1.06l-.35,.3,.45-.23s-.05-.06-.1-.08Z"/></g><g><path class="cls-1" d="M145.75,74.16c-1.44,.06-2.48,.1-3.11,.12-.64,.03-.96-.12-.96-.46s.17-.66,.5-1c3.54-3.26,9.52-4.9,17.93-4.9,2.88,0,5.15,.25,6.81,.75l.83,.25c.66,.28,1,.58,1,.91,0,.28-.19,.5-.58,.66-1.49,.44-2.93,1.15-4.32,2.12-1.38,.97-2.08,1.65-2.08,2.03l.5,.58c1.77,1,3.14,2.57,4.11,4.73,.97,2.16,1.51,4.07,1.62,5.73l.17,2.57c0,5.48-1.52,9.99-4.57,13.53s-7.19,5.31-12.45,5.31c-2.66,0-4.95-.47-6.89-1.41-1.94-.94-3.36-2-4.27-3.2-.91-1.19-1.65-2.53-2.2-4.03-.66-2.05-1-4.16-1-6.35s.37-4.38,1.12-6.6c.75-2.21,1.6-3.85,2.57-4.9,.97-1.05,2.06-1.91,3.28-2.57,1.55-.83,2.79-1.25,3.74-1.25s1.41,.2,1.41,.58l-.5,.83c-1.22,1.44-2.09,3.32-2.61,5.64-.53,2.32-.79,4.39-.79,6.18s.22,3.58,.66,5.35c.44,1.77,.94,3.08,1.49,3.94,.55,.86,1.19,1.51,1.91,1.95,1.05,.66,2.16,1,3.32,1s2.3-.46,3.4-1.37c1.11-.91,1.91-2.12,2.41-3.61,1-2.77,1.49-5.62,1.49-8.55,0-4.65-1.18-8.24-3.53-10.79-2.35-2.54-5.82-3.82-10.42-3.82Z"/><path class="cls-1" d="M151.15,107.61c-2.72,0-5.11-.49-7.11-1.46-2-.97-3.5-2.09-4.45-3.34-.94-1.22-1.7-2.62-2.27-4.16-.68-2.11-1.03-4.29-1.03-6.52s.39-4.5,1.15-6.76c.77-2.27,1.67-3.98,2.68-5.08,1-1.08,2.14-1.98,3.41-2.67,1.64-.88,2.94-1.31,3.97-1.31,1.27,0,1.91,.36,1.91,1.08v.14l-.57,.95c-1.21,1.44-2.05,3.27-2.55,5.5-.51,2.27-.78,4.31-.78,6.07s.22,3.51,.65,5.23c.42,1.71,.91,2.98,1.43,3.79,.51,.79,1.1,1.39,1.75,1.8,1.92,1.21,4.1,1.35,6.14-.33,1.03-.85,1.79-1.99,2.25-3.38,.98-2.71,1.47-5.53,1.47-8.39,0-4.5-1.14-8.01-3.39-10.45-2.24-2.42-5.62-3.66-10.04-3.66-1.43,.06-2.47,.1-3.1,.12-.57,.02-.96-.08-1.21-.32-.17-.17-.27-.39-.27-.64,0-.47,.22-.92,.64-1.35,3.63-3.35,9.78-5.04,18.28-5.04,2.91,0,5.25,.26,6.95,.77l.83,.25c.37,.15,1.35,.56,1.35,1.39,0,.34-.15,.81-.88,1.12-1.49,.45-2.89,1.13-4.23,2.07-1.23,.86-1.65,1.32-1.79,1.52l.25,.29c1.82,1.05,3.25,2.7,4.24,4.92,.99,2.2,1.55,4.19,1.66,5.9l.17,2.58c0,5.61-1.58,10.27-4.69,13.89-3.13,3.64-7.44,5.49-12.83,5.49Zm-3.65-30.3c-.85,0-2.03,.4-3.5,1.19-1.16,.63-2.22,1.47-3.15,2.47-.92,.99-1.75,2.58-2.47,4.72-.73,2.15-1.09,4.32-1.09,6.44s.33,4.21,.97,6.2c.52,1.42,1.24,2.73,2.12,3.88,.86,1.12,2.24,2.15,4.1,3.05,1.86,.9,4.1,1.36,6.67,1.36,5.08,0,9.14-1.73,12.07-5.14,2.95-3.43,4.45-7.88,4.45-13.2l-.17-2.54c-.11-1.59-.64-3.46-1.58-5.56-.92-2.05-2.23-3.56-3.9-4.5l-.13-.11-.62-.72v-.18c0-.44,.28-1.04,2.29-2.44,1.42-.99,2.92-1.73,4.46-2.19,.14-.06,.22-.14,.22-.18,0,0-.06-.19-.69-.45l-.78-.23c-1.61-.48-3.85-.73-6.66-.73-8.24,0-14.16,1.6-17.59,4.76-.19,.19-.31,.38-.33,.56,.07,.02,.2,.04,.43,.03,.64-.03,1.67-.07,3.12-.13h.02c4.71,0,8.34,1.34,10.78,3.98,2.43,2.63,3.66,6.38,3.66,11.13,0,2.98-.51,5.91-1.52,8.72-.52,1.56-1.38,2.86-2.56,3.83-2.37,1.95-5.03,1.85-7.31,.41-.78-.48-1.47-1.19-2.06-2.1-.59-.91-1.1-2.25-1.56-4.09-.45-1.8-.68-3.64-.68-5.47s.27-3.95,.8-6.29c.54-2.39,1.45-4.36,2.72-5.86l.3-.51c-.11-.03-.36-.08-.83-.08Z"/></g><g><path class="cls-1" d="M170.57,106.03c1-5.98,1.49-13.14,1.49-21.5s-.25-13.78-.75-16.27c0-.72,.83-1.08,2.49-1.08,2.54,0,4.23,.97,5.06,2.91,.05,.17,.19,.25,.42,.25s.39-.05,.5-.17c1.71-1.77,4.37-2.66,7.97-2.66s6.45,.91,8.55,2.74c2.1,1.83,3.15,4.48,3.15,7.97,0,2.1-.18,5.09-.54,8.96-.36,3.88-.54,6.75-.54,8.63,0,4.48,.75,7.72,2.24,9.71,.22,.28,.33,.55,.33,.83,0,.72-.78,1.08-2.32,1.08-6.86,0-10.29-3.04-10.29-9.13,0-2.32,.53-5.56,1.58-9.71,1.05-4.15,1.58-7.3,1.58-9.46,0-4.43-1.83-6.64-5.48-6.64-1.77,0-3.11,.53-4.03,1.58-.91,1.05-1.43,2.25-1.54,3.61-.11,1.36-.17,3.92-.17,7.68,0,5.75,.19,10.76,.58,15.02l.17,1.83c0,1.55-1.01,2.75-3.03,3.61-2.02,.86-3.76,1.29-5.23,1.29s-2.2-.36-2.2-1.08Z"/><path class="cls-1" d="M198.62,107.94c-7.16,0-10.79-3.24-10.79-9.63,0-2.36,.54-5.66,1.59-9.83,1.04-4.09,1.56-7.24,1.56-9.34,0-4.13-1.63-6.14-4.98-6.14-1.63,0-2.83,.46-3.65,1.41-.84,.96-1.31,2.08-1.42,3.32-.11,1.33-.16,3.9-.16,7.64,0,5.72,.19,10.76,.58,14.98l.17,1.83c0,1.81-1.12,3.18-3.33,4.12-2.08,.88-3.9,1.33-5.42,1.33-2.23,0-2.7-.86-2.7-1.58v-.08c.99-5.92,1.49-13.12,1.49-21.42s-.25-13.73-.74-16.17c0-1.15,1-1.68,2.98-1.68,2.73,0,4.58,1.06,5.5,3.15,.1,0,.13-.02,.13-.02,1.8-1.85,4.6-2.8,8.32-2.8s6.69,.96,8.88,2.86c2.21,1.92,3.33,4.73,3.33,8.35,0,2.1-.18,5.13-.54,9.01-.36,3.83-.54,6.72-.54,8.59,0,4.35,.72,7.52,2.14,9.41,.28,.36,.43,.74,.43,1.13,0,1.05-.95,1.58-2.82,1.58Zm-12.62-35.95c2.73,0,5.98,1.24,5.98,7.14,0,2.19-.54,5.41-1.59,9.59-1.04,4.09-1.56,7.32-1.56,9.59,0,5.81,3.2,8.63,9.79,8.63,.55,0,1.82-.06,1.82-.58,0-.16-.07-.33-.22-.52-1.56-2.08-2.35-5.45-2.35-10.02,0-1.9,.18-4.82,.54-8.68,.36-3.85,.54-6.85,.54-8.92,0-3.32-1-5.87-2.98-7.59-2-1.74-4.77-2.62-8.22-2.62s-6,.84-7.61,2.5c-.21,.21-.5,.32-.86,.32-.63,0-.83-.41-.89-.59-.74-1.71-2.24-2.56-4.59-2.56-1.25,0-1.99,.22-1.99,.58,.5,2.45,.75,7.8,.75,16.27s-.5,15.57-1.49,21.53c.04,.48,1.08,.55,1.7,.55,1.39,0,3.08-.42,5.03-1.25,1.83-.78,2.72-1.81,2.72-3.15l-.16-1.78c-.39-4.25-.58-9.32-.58-15.07,0-3.82,.05-6.34,.17-7.72,.12-1.46,.68-2.77,1.66-3.9,1.01-1.16,2.49-1.75,4.4-1.75Zm-6.68-2.11s0,0,0,0c0,0,0,0,0,0Z"/></g><g><path class="cls-1" d="M58.52,155.61c1.05,0,1.58,1.33,1.58,3.98s-.5,5.04-1.49,7.14c-1,2.1-2.2,3.73-3.61,4.9-1.41,1.16-3,2.1-4.77,2.82-5.92,2.6-11.46,2.54-16.6-.17-2.6-1.38-4.59-3.03-5.98-4.94-1.38-1.91-2.49-4.19-3.32-6.85-1.27-3.98-1.91-8.16-1.91-12.53s.42-8.47,1.25-12.28c.83-3.82,2.1-7.46,3.82-10.92,1.71-3.46,4.15-6.24,7.3-8.34,3.15-2.1,6.81-3.15,10.96-3.15,1.77,0,3.61,.29,5.52,.87,1.91,.58,3.47,1.3,4.69,2.16,1.22,.86,2.29,2.17,3.24,3.94,.94,1.77,1.41,3.85,1.41,6.23,0,2.55-.61,4.84-1.83,6.89-.55,.94-1.44,1.78-2.66,2.53-1.22,.75-2.66,1.12-4.32,1.12-2.54,0-4.34-1.13-5.39-3.4-.44-.88-.66-1.85-.66-2.9s.36-1.66,1.08-1.83c.78-.22,1.49-.83,2.16-1.83s1-2.16,1-3.49c0-1.05-.28-1.96-.83-2.74-1.05-1.38-2.57-2.08-4.56-2.08s-3.8,.91-5.44,2.74-2.86,4.12-3.69,6.89c-1.66,5.53-2.49,10.62-2.49,15.27s.64,8.38,1.91,11.21c1.55,3.49,3.51,5.81,5.89,6.97,1.49,.72,3.21,1.08,5.15,1.08,3.26,0,6.2-1.47,8.8-4.4,1.11-1.16,2.02-2.54,2.74-4.15,.28-.5,.64-.75,1.08-.75Z"/><path class="cls-1" d="M41.8,176.85c-2.91,0-5.73-.71-8.42-2.13-2.66-1.41-4.73-3.12-6.15-5.09-1.41-1.94-2.55-4.29-3.39-6.99-1.28-4.01-1.93-8.28-1.93-12.68s.42-8.55,1.26-12.39c.83-3.84,2.13-7.55,3.86-11.03,1.75-3.52,4.26-6.39,7.47-8.54,3.22-2.15,7-3.24,11.23-3.24,1.81,0,3.72,.3,5.67,.89,1.95,.59,3.57,1.34,4.83,2.23,1.27,.9,2.42,2.28,3.39,4.12,.98,1.84,1.47,4.01,1.47,6.46,0,2.62-.64,5.03-1.9,7.15-.59,1-1.54,1.91-2.82,2.7-1.29,.79-2.83,1.2-4.58,1.2-2.75,0-4.71-1.24-5.85-3.69-.47-.93-.71-1.99-.71-3.11,0-1.63,.8-2.16,1.47-2.31,.63-.18,1.26-.73,1.85-1.62s.91-1.99,.91-3.21c0-.95-.24-1.75-.74-2.45-.95-1.25-2.31-1.87-4.16-1.87s-3.52,.84-5.06,2.57c-1.58,1.76-2.78,4.02-3.59,6.7-1.64,5.46-2.47,10.55-2.47,15.13s.63,8.26,1.87,11c1.49,3.36,3.4,5.62,5.66,6.73,1.42,.68,3.07,1.03,4.93,1.03,3.1,0,5.93-1.42,8.42-4.23,1.08-1.13,1.96-2.48,2.66-4.02,.48-.87,1.1-1.04,1.54-1.04,2.08,0,2.08,3.38,2.08,4.48,0,2.72-.52,5.19-1.54,7.35-1.02,2.16-2.28,3.87-3.75,5.07-1.44,1.19-3.09,2.17-4.9,2.9-2.94,1.29-5.82,1.94-8.6,1.94Zm3.93-61.08c-4.03,0-7.62,1.03-10.68,3.07-3.07,2.05-5.47,4.79-7.13,8.15-1.69,3.41-2.96,7.04-3.78,10.8-.82,3.77-1.23,7.86-1.23,12.18s.63,8.47,1.89,12.38c.81,2.6,1.9,4.85,3.25,6.71,1.33,1.84,3.28,3.45,5.8,4.79,4.98,2.62,10.42,2.67,16.17,.15,1.73-.7,3.29-1.62,4.65-2.75,1.35-1.11,2.52-2.7,3.48-4.72,.96-2.03,1.45-4.36,1.45-6.92,0-2.21-.39-3.48-1.08-3.48-.1,0-.37,0-.64,.49-.72,1.61-1.67,3.05-2.81,4.25-2.68,3.02-5.76,4.55-9.16,4.55-2,0-3.81-.38-5.36-1.13-2.48-1.21-4.54-3.64-6.13-7.22-1.3-2.87-1.95-6.71-1.95-11.41s.84-9.86,2.51-15.42c.85-2.83,2.13-5.21,3.8-7.08,1.72-1.93,3.68-2.91,5.81-2.91s3.82,.76,4.96,2.27c.62,.87,.93,1.89,.93,3.04,0,1.42-.36,2.69-1.08,3.76-.73,1.09-1.55,1.78-2.44,2.03-.21,.05-.71,.17-.71,1.35,0,.97,.21,1.87,.61,2.68,.98,2.11,2.59,3.13,4.95,3.13,1.56,0,2.92-.35,4.05-1.05,1.14-.7,1.98-1.5,2.49-2.36,1.17-1.96,1.76-4.19,1.76-6.64,0-2.28-.46-4.3-1.35-5.99-.9-1.69-1.94-2.96-3.08-3.77-1.17-.82-2.7-1.53-4.55-2.09-1.85-.56-3.66-.85-5.37-.85Z"/></g><g><path class="cls-1" d="M71.13,143.33c-1.44,.06-2.48,.1-3.11,.12-.64,.03-.95-.12-.95-.46s.17-.66,.5-1c3.54-3.26,9.52-4.9,17.93-4.9,2.88,0,5.15,.25,6.81,.75l.83,.25c.66,.28,1,.58,1,.91,0,.28-.2,.5-.58,.66-1.49,.44-2.93,1.15-4.32,2.12-1.38,.97-2.07,1.65-2.07,2.03l.5,.58c1.77,1,3.14,2.57,4.11,4.73,.97,2.16,1.51,4.07,1.62,5.73l.17,2.57c0,5.48-1.52,9.99-4.56,13.53-3.04,3.54-7.19,5.31-12.45,5.31-2.66,0-4.95-.47-6.89-1.41-1.94-.94-3.36-2-4.28-3.2-.91-1.19-1.65-2.53-2.2-4.03-.66-2.05-1-4.16-1-6.35s.37-4.38,1.12-6.6,1.6-3.85,2.57-4.9c.97-1.05,2.06-1.91,3.28-2.57,1.55-.83,2.79-1.25,3.73-1.25s1.41,.19,1.41,.58l-.5,.83c-1.22,1.44-2.09,3.32-2.62,5.64-.53,2.32-.79,4.39-.79,6.18s.22,3.58,.66,5.35c.44,1.77,.94,3.08,1.49,3.94,.55,.86,1.19,1.51,1.91,1.95,1.05,.66,2.16,1,3.32,1s2.29-.46,3.4-1.37c1.11-.91,1.91-2.12,2.41-3.61,1-2.77,1.49-5.62,1.49-8.55,0-4.65-1.18-8.24-3.53-10.79-2.35-2.54-5.82-3.82-10.42-3.82Z"/><path class="cls-1" d="M76.53,176.78c-2.72,0-5.11-.49-7.11-1.46-2-.97-3.5-2.09-4.45-3.34-.94-1.23-1.71-2.62-2.27-4.16-.68-2.11-1.03-4.29-1.03-6.52s.39-4.5,1.15-6.76c.77-2.27,1.67-3.98,2.68-5.08,1-1.09,2.15-1.99,3.41-2.67,1.64-.88,2.94-1.31,3.97-1.31,1.27,0,1.91,.36,1.91,1.08v.14l-.57,.95c-1.21,1.44-2.05,3.26-2.56,5.5-.51,2.27-.78,4.32-.78,6.07s.22,3.52,.65,5.23c.43,1.71,.91,2.99,1.43,3.79,.51,.79,1.1,1.39,1.75,1.79,1.93,1.22,4.08,1.36,6.14-.33,1.03-.85,1.79-1.99,2.25-3.38,.98-2.71,1.47-5.53,1.47-8.39,0-4.5-1.14-8.01-3.4-10.45-2.24-2.42-5.62-3.66-10.04-3.66-1.43,.06-2.47,.1-3.1,.12-.57,.02-.96-.08-1.21-.32-.17-.17-.27-.39-.27-.64,0-.47,.22-.92,.64-1.35,3.63-3.35,9.78-5.04,18.28-5.04,2.91,0,5.25,.26,6.95,.77l.83,.25c.37,.15,1.35,.56,1.35,1.39,0,.34-.15,.81-.88,1.12-1.49,.45-2.9,1.13-4.23,2.07-1.23,.86-1.65,1.32-1.79,1.52l.25,.29c1.82,1.05,3.25,2.7,4.24,4.92,.99,2.2,1.55,4.19,1.66,5.9l.17,2.57c0,5.61-1.58,10.27-4.68,13.89-3.13,3.64-7.45,5.49-12.83,5.49Zm-3.65-30.3c-.85,0-2.03,.4-3.5,1.19-1.16,.63-2.22,1.46-3.15,2.47-.91,.99-1.74,2.58-2.47,4.72-.73,2.15-1.09,4.32-1.09,6.44s.33,4.21,.97,6.2c.53,1.42,1.24,2.73,2.12,3.88,.86,1.12,2.24,2.15,4.1,3.05,1.86,.9,4.1,1.36,6.67,1.36,5.08,0,9.14-1.73,12.07-5.14,2.95-3.43,4.44-7.87,4.44-13.2l-.17-2.54c-.11-1.59-.64-3.46-1.58-5.56-.92-2.05-2.23-3.56-3.9-4.5l-.13-.11-.62-.72v-.18c0-.44,.28-1.04,2.29-2.44,1.42-.99,2.92-1.73,4.46-2.19,.13-.06,.22-.14,.22-.18,0,0-.06-.19-.69-.45l-.78-.23c-1.61-.48-3.85-.73-6.66-.73-8.24,0-14.16,1.6-17.59,4.76-.19,.19-.31,.38-.33,.56,.07,.02,.19,.04,.43,.03,.64-.03,1.68-.07,3.12-.12h.02c4.72,0,8.34,1.34,10.78,3.98,2.43,2.63,3.66,6.37,3.66,11.13,0,2.98-.51,5.91-1.52,8.72-.52,1.57-1.38,2.86-2.56,3.83-2.37,1.95-5.03,1.85-7.31,.41-.78-.48-1.47-1.19-2.06-2.1-.59-.91-1.1-2.25-1.56-4.09-.45-1.79-.68-3.64-.68-5.47s.27-3.95,.8-6.29c.54-2.39,1.46-4.36,2.72-5.86l.3-.51c-.11-.03-.36-.08-.83-.08Zm-5.36-3.58h0Z"/></g><g><path class="cls-1" d="M104.34,143.33c-1.44,.06-2.48,.1-3.11,.12-.64,.03-.96-.12-.96-.46s.17-.66,.5-1c3.54-3.26,9.52-4.9,17.93-4.9,2.88,0,5.15,.25,6.81,.75l.83,.25c.66,.28,1,.58,1,.91,0,.28-.19,.5-.58,.66-1.49,.44-2.93,1.15-4.32,2.12-1.38,.97-2.08,1.65-2.08,2.03l.5,.58c1.77,1,3.14,2.57,4.11,4.73,.97,2.16,1.51,4.07,1.62,5.73l.17,2.57c0,5.48-1.52,9.99-4.57,13.53-3.04,3.54-7.19,5.31-12.45,5.31-2.66,0-4.95-.47-6.89-1.41-1.94-.94-3.36-2-4.28-3.2-.91-1.19-1.65-2.53-2.2-4.03-.66-2.05-1-4.16-1-6.35s.37-4.38,1.12-6.6c.75-2.21,1.6-3.85,2.57-4.9,.97-1.05,2.06-1.91,3.28-2.57,1.55-.83,2.79-1.25,3.73-1.25s1.41,.19,1.41,.58l-.5,.83c-1.22,1.44-2.09,3.32-2.61,5.64-.53,2.32-.79,4.39-.79,6.18s.22,3.58,.66,5.35c.44,1.77,.94,3.08,1.49,3.94,.55,.86,1.19,1.51,1.91,1.95,1.05,.66,2.16,1,3.32,1s2.3-.46,3.4-1.37c1.11-.91,1.91-2.12,2.41-3.61,1-2.77,1.49-5.62,1.49-8.55,0-4.65-1.18-8.24-3.53-10.79-2.35-2.54-5.82-3.82-10.42-3.82Z"/><path class="cls-1" d="M109.73,176.78c-2.72,0-5.11-.49-7.11-1.46-2-.97-3.5-2.09-4.45-3.34-.94-1.22-1.7-2.62-2.27-4.16-.68-2.11-1.03-4.29-1.03-6.52s.39-4.51,1.15-6.76c.76-2.27,1.67-3.98,2.68-5.08,1-1.09,2.15-1.99,3.41-2.67,1.64-.88,2.94-1.31,3.97-1.31,1.27,0,1.91,.36,1.91,1.08v.14l-.57,.95c-1.21,1.44-2.05,3.26-2.56,5.5-.51,2.27-.78,4.31-.78,6.07s.22,3.51,.65,5.23c.43,1.71,.91,2.98,1.43,3.79,.51,.79,1.1,1.39,1.75,1.8,1.92,1.21,4.1,1.35,6.14-.33,1.03-.85,1.79-1.99,2.25-3.38,.98-2.71,1.47-5.53,1.47-8.39,0-4.5-1.14-8.01-3.39-10.45-2.24-2.42-5.62-3.66-10.04-3.66-1.43,.06-2.47,.1-3.1,.12-.57,.02-.96-.08-1.21-.32-.17-.17-.27-.39-.27-.64,0-.47,.22-.92,.64-1.35,3.63-3.35,9.78-5.04,18.28-5.04,2.91,0,5.25,.26,6.95,.77l.83,.25c.37,.15,1.35,.56,1.35,1.39,0,.34-.15,.81-.88,1.12-1.49,.45-2.9,1.13-4.23,2.07-1.23,.86-1.65,1.32-1.79,1.52l.25,.29c1.82,1.05,3.25,2.7,4.24,4.92,.99,2.2,1.55,4.19,1.66,5.9l.17,2.57c0,5.61-1.58,10.27-4.69,13.89-3.13,3.64-7.45,5.49-12.83,5.49Zm-3.65-30.3c-.85,0-2.03,.4-3.5,1.19-1.16,.63-2.22,1.46-3.15,2.47-.92,1-1.75,2.58-2.47,4.72-.73,2.15-1.09,4.31-1.09,6.44s.33,4.21,.97,6.2c.53,1.42,1.24,2.73,2.12,3.88,.86,1.12,2.24,2.15,4.1,3.05,1.86,.9,4.1,1.36,6.67,1.36,5.08,0,9.14-1.73,12.07-5.14,2.95-3.43,4.44-7.88,4.44-13.2l-.17-2.54c-.11-1.59-.64-3.46-1.58-5.56-.92-2.05-2.23-3.56-3.9-4.5l-.13-.11-.62-.72v-.18c0-.44,.28-1.04,2.29-2.44,1.42-.99,2.92-1.73,4.46-2.19,.14-.06,.22-.14,.22-.18,0,0-.06-.19-.69-.45l-.78-.23c-1.61-.48-3.85-.73-6.66-.73-8.24,0-14.16,1.6-17.59,4.76-.19,.19-.31,.38-.33,.56,.06,.02,.19,.04,.43,.03,.64-.03,1.68-.07,3.12-.12h.02c4.71,0,8.34,1.34,10.78,3.98,2.43,2.63,3.66,6.37,3.66,11.13,0,2.98-.51,5.91-1.52,8.72-.52,1.57-1.38,2.86-2.56,3.83-2.37,1.95-5.03,1.85-7.31,.41-.78-.48-1.47-1.19-2.06-2.1-.59-.91-1.1-2.25-1.56-4.09-.45-1.8-.68-3.64-.68-5.47s.27-3.95,.8-6.29c.54-2.39,1.46-4.36,2.72-5.86l.3-.51c-.11-.03-.36-.08-.83-.08Zm-5.36-3.58h0Z"/></g><g><path class="cls-1" d="M146.5,147.72c-.22,.22-.33,.46-.33,.71s.51,.49,1.54,.71c1.02,.22,2.14,.83,3.36,1.83,1.22,1,2.13,2.08,2.74,3.24,1.16,2.27,1.8,4.26,1.91,5.98l.08,1.08c.28,6.47,1.47,10.9,3.57,13.28,.28,.39,.41,.66,.41,.83,0,.61-.78,.91-2.32,.91-4.65,0-7.61-.97-8.88-2.91-.66-.77-1-3.18-1-7.22v-2.07c0-5.15-.64-8.71-1.91-10.71-.66-.94-1.48-1.41-2.45-1.41s-1.98,.84-3.03,2.53c-1.05,1.69-1.58,3.11-1.58,4.27,0,4.65,.11,7.88,.33,9.71s.33,2.77,.33,2.82c0,1.61-1.09,2.85-3.28,3.74-2.19,.88-4.25,1.33-6.18,1.33-.72,0-1.08-.44-1.08-1.33v-.33c1.33-6.81,1.99-17.54,1.99-32.21,0-4.81-.11-8.88-.33-12.2l-.17-1.66c-.11-1.55-.43-2.88-.95-3.98-.53-1.11-1.04-1.83-1.54-2.16l-.66-.42c-.39-.22-.58-.47-.58-.75,0-.88,1.33-1.88,3.98-2.99,2.66-1.11,4.95-1.66,6.89-1.66,.88,.06,1.36,.39,1.41,1,.28,2.21,.42,6.76,.42,13.65s-.17,12.38-.5,16.48c0,.66,.11,1,.33,1s.57-.32,1.04-.95c.47-.64,1.3-1.65,2.49-3.03,1.19-1.38,2.79-2.99,4.81-4.81,2.02-1.83,3.65-2.74,4.9-2.74s2.48,.3,3.69,.91,1.83,1.19,1.83,1.74l-.91,.58c-3.15,1.16-6.61,3.57-10.38,7.22Z"/><path class="cls-1" d="M129.82,176.86c-.47,0-1.58-.18-1.58-1.83v-.33c1.33-6.84,1.99-17.64,1.99-32.21,0-4.77-.11-8.87-.33-12.17l-.16-1.64c-.11-1.49-.41-2.77-.91-3.82-.6-1.27-1.07-1.76-1.36-1.96l-.65-.41c-.53-.3-.81-.7-.81-1.17,0-1.13,1.36-2.23,4.29-3.45,2.71-1.13,5.09-1.7,7.08-1.7,1.56,.1,1.86,.95,1.91,1.45,.28,2.21,.42,6.82,.42,13.7s-.17,12.43-.5,16.52c0,.11,0,.19,.01,.26,.11-.11,.26-.29,.46-.56,.48-.65,1.3-1.65,2.51-3.06,1.21-1.41,2.84-3.04,4.86-4.86,2.13-1.93,3.85-2.87,5.23-2.87s2.64,.33,3.92,.97c1.43,.72,2.1,1.41,2.1,2.19v.27l-1.24,.78c-3.07,1.13-6.5,3.52-10.2,7.11-.09,.09-.14,.17-.16,.23,.13,.07,.43,.19,1.12,.34,1.1,.24,2.3,.89,3.57,1.93,1.26,1.03,2.23,2.17,2.86,3.39,1.19,2.32,1.85,4.4,1.97,6.18l.08,1.07c.27,6.35,1.43,10.71,3.45,12.99,.39,.54,.54,.88,.54,1.16,0,1.41-2.13,1.41-2.82,1.41-4.87,0-7.91-1.02-9.3-3.13-.44-.51-1.08-1.9-1.08-7.5v-2.07c0-5.02-.62-8.54-1.83-10.44-.56-.79-1.22-1.18-2.03-1.18s-1.67,.79-2.6,2.3c-1,1.6-1.5,2.95-1.5,4.01,0,4.6,.11,7.85,.33,9.65,.34,2.78,.34,2.82,.34,2.88,0,1.82-1.21,3.23-3.59,4.2-2.24,.91-4.38,1.36-6.37,1.36Zm7.52-59.68c-1.83,0-4.08,.55-6.67,1.62-3.41,1.42-3.68,2.29-3.68,2.53,0,.06,.09,.17,.33,.31l.68,.43c.59,.39,1.15,1.17,1.72,2.37,.55,1.16,.89,2.56,1,4.16l.16,1.65c.22,3.34,.33,7.46,.33,12.25,0,14.63-.67,25.49-2,32.3v.24c0,.83,.34,.83,.59,.83,1.86,0,3.88-.43,6-1.29,2-.81,2.96-1.88,2.96-3.27,0-.13-.25-2.11-.33-2.76-.22-1.84-.34-5.13-.34-9.77,0-1.27,.54-2.75,1.65-4.54,1.16-1.86,2.29-2.77,3.45-2.77s2.1,.55,2.86,1.62c1.35,2.11,2,5.7,2,11v2.07c0,5.11,.55,6.51,.88,6.9,1.21,1.83,4.05,2.73,8.5,2.73,1.34,0,1.82-.25,1.82-.41h0s-.04-.15-.32-.54c-2.17-2.45-3.38-6.89-3.66-13.55l-.08-1.06c-.11-1.64-.73-3.59-1.86-5.79-.57-1.09-1.45-2.13-2.61-3.08-1.15-.94-2.21-1.52-3.15-1.72-1.16-.25-1.93-.55-1.93-1.19,0-.38,.16-.74,.48-1.06h0c3.78-3.67,7.31-6.13,10.5-7.32l.56-.36c-.14-.22-.5-.59-1.47-1.07-1.14-.57-2.31-.86-3.47-.86s-2.65,.88-4.56,2.61c-1.98,1.79-3.59,3.4-4.77,4.77-1.18,1.37-2.01,2.38-2.47,3-.61,.82-1.02,1.16-1.44,1.16-.83,0-.83-1.12-.83-1.5,.33-4.1,.5-9.63,.5-16.48s-.14-11.41-.41-13.59c-.01-.16-.05-.5-.95-.56Z"/></g><g><path class="cls-1" d="M161.61,172.13l.91-19.34c0-4.59-.53-7.72-1.58-9.38-.33-.55-.72-.97-1.16-1.25-.33-.11-.5-.33-.5-.66,0-1,1.41-1.96,4.23-2.91,2.82-.94,4.88-1.41,6.18-1.41s1.98,.33,2.03,1c0,1.11-.15,4.25-.46,9.42-.3,5.17-.46,10.61-.46,16.31s.33,9.24,1,10.62c.17,.28,.25,.55,.25,.83,0,.72-1.05,1.08-3.15,1.08s-4.26-.55-6.47-1.66c-.55-.28-.83-1.16-.83-2.66Zm6.64-41.92l-1.99-.08c-1.49,0-2.46,.36-2.91,1.08-.11,.17-.25,.25-.42,.25-.72,0-1.08-1.23-1.08-3.69s.37-4.03,1.12-4.69c.75-.66,2.05-1,3.9-1s3.11,.32,3.78,.96c.66,.64,1,1.7,1,3.2s-.25,2.53-.75,3.11c-.5,.58-1.38,.87-2.66,.87Z"/><path class="cls-1" d="M168.91,176.94c-2.17,0-4.42-.58-6.7-1.71-.74-.37-1.11-1.39-1.11-3.1v-.02s.91-19.34,.91-19.34c0-4.45-.5-7.52-1.5-9.09-.28-.47-.6-.82-.96-1.06-.49-.19-.78-.59-.78-1.12,0-1.26,1.45-2.34,4.57-3.38,2.9-.97,4.98-1.44,6.34-1.44,1.99,0,2.48,.79,2.53,1.46,0,1.16-.15,4.25-.46,9.49-.3,5.13-.46,10.61-.46,16.28s.32,9.1,.95,10.41c.19,.31,.3,.68,.3,1.05,0,1.58-2.66,1.58-3.65,1.58Zm-6.8-4.8c0,1.73,.39,2.11,.55,2.2,2.13,1.07,4.24,1.61,6.25,1.61s2.65-.38,2.65-.58c0-.19-.06-.38-.18-.57-.73-1.51-1.07-5.05-1.07-10.88s.15-11.19,.46-16.34c.3-5.14,.46-8.3,.46-9.39-.04-.43-.98-.5-1.53-.5-1.24,0-3.27,.47-6.03,1.38-3.51,1.17-3.89,2.09-3.89,2.43,0,.09,0,.14,.16,.19l.11,.05c.51,.32,.96,.8,1.32,1.41,1.11,1.75,1.65,4.91,1.65,9.64l-.91,19.35Zm.83-40.18c-1.4,0-1.58-2.24-1.58-4.19,0-2.64,.42-4.29,1.29-5.06,.85-.75,2.23-1.12,4.23-1.12s3.35,.36,4.12,1.09c.76,.73,1.15,1.93,1.15,3.56s-.28,2.76-.87,3.44c-.6,.69-1.62,1.05-3.04,1.05h-.02l-1.99-.08c-1.28,0-2.12,.28-2.46,.84-.21,.32-.51,.49-.84,.49Zm3.94-9.38c-1.72,0-2.92,.29-3.57,.87-.43,.39-.95,1.45-.95,4.32,0,3.06,.57,3.19,.58,3.19,.53-.88,1.65-1.33,3.32-1.33l2,.08c1.11,0,1.87-.24,2.27-.7,.29-.33,.63-1.09,.63-2.79,0-1.34-.28-2.3-.84-2.83-.56-.53-1.74-.82-3.43-.82Z"/></g><g><path class="cls-1" d="M201.45,164.57c0,2.1-.43,3.94-1.29,5.52s-1.83,2.74-2.9,3.49c-1.08,.75-2.34,1.34-3.78,1.78-1.83,.55-3.57,.83-5.23,.83-4.65,0-8.08-1.74-10.29-5.23-2.21-3.49-3.32-7.93-3.32-13.32s1.37-10.19,4.11-14.4c2.74-4.21,6.85-6.31,12.33-6.31,4.98,0,8.35,1.74,10.12,5.23,.72,1.33,1.08,2.59,1.08,3.78s-.06,2.13-.17,2.82c-.11,.69-.5,1.73-1.16,3.11s-1.55,2.63-2.66,3.73-2.85,2.16-5.23,3.15c-2.38,1-5.18,1.66-8.38,1.99-.44,0-.66,.19-.66,.58,0,.5,.18,1.23,.54,2.2,.36,.97,.76,1.78,1.2,2.45,1.22,1.55,3.02,2.32,5.39,2.32s4.4-.77,6.06-2.32c.88-.83,1.61-1.85,2.16-3.07,.22-.44,.51-.66,.87-.66s.65,.3,.87,.91c.22,.61,.33,1.08,.33,1.41Zm-18.09-11.04l.08,2.07c0,.33,.22,.5,.66,.5,1.77-.17,3.32-.62,4.65-1.37s2.32-1.59,2.99-2.53c1.33-2.05,2.04-3.82,2.16-5.31l.08-1c0-2.99-1.19-4.48-3.57-4.48-1.77,0-3.21,.78-4.32,2.32-1.83,2.44-2.74,5.7-2.74,9.79Z"/><path class="cls-1" d="M188.25,176.69c-4.81,0-8.42-1.84-10.71-5.46-2.25-3.55-3.4-8.12-3.4-13.59s1.41-10.4,4.19-14.67c2.82-4.34,7.11-6.54,12.75-6.54,5.16,0,8.71,1.85,10.57,5.5,.75,1.39,1.13,2.74,1.13,4s-.06,2.18-.17,2.9c-.12,.75-.51,1.81-1.21,3.25-.69,1.43-1.61,2.73-2.75,3.87s-2.96,2.24-5.39,3.26c-2.42,1.01-5.28,1.69-8.53,2.03-.18,0-.22,.03-.22,.03,0,.36,.1,.95,.52,2.08,.34,.93,.73,1.72,1.15,2.35,1.1,1.4,2.74,2.1,4.98,2.1s4.16-.74,5.72-2.19c.83-.78,1.52-1.76,2.04-2.91,.4-.79,.94-.96,1.33-.96,.59,0,1.04,.42,1.34,1.24,.24,.67,.36,1.19,.36,1.58,0,2.18-.45,4.11-1.35,5.76-.89,1.64-1.92,2.87-3.06,3.66-1.12,.77-2.43,1.39-3.92,1.85-1.87,.57-3.68,.85-5.38,.85Zm2.82-39.26c-5.27,0-9.28,2.05-11.91,6.08-2.67,4.1-4.03,8.86-4.03,14.13s1.09,9.67,3.24,13.05c2.13,3.36,5.36,5,9.87,5,1.6,0,3.31-.27,5.08-.81,1.38-.43,2.61-1,3.64-1.72,1.01-.7,1.93-1.81,2.75-3.31,.81-1.5,1.23-3.27,1.23-5.28,0-.19-.05-.55-.3-1.24-.15-.4-.31-.58-.4-.58-.06,0-.23,0-.43,.39-.57,1.25-1.33,2.34-2.26,3.21-1.75,1.63-3.9,2.46-6.4,2.46s-4.48-.85-5.79-2.52c-.49-.72-.91-1.58-1.28-2.58-.38-1.03-.57-1.81-.57-2.37,0-.67,.45-1.08,1.16-1.08,3.09-.32,5.87-.98,8.19-1.95,2.31-.97,4.01-1.99,5.07-3.05s1.92-2.27,2.56-3.6c.64-1.33,1.02-2.33,1.12-2.98,.11-.67,.16-1.59,.16-2.74s-.34-2.29-1.02-3.54c-1.7-3.35-4.87-4.97-9.69-4.97Zm-6.93,19.17c-.9,0-1.21-.51-1.21-1l-.08-2.07c0-4.19,.96-7.58,2.84-10.09,1.19-1.67,2.78-2.52,4.72-2.52s4.07,.86,4.07,4.98l-.08,1.04c-.12,1.57-.87,3.44-2.24,5.54-.71,1.01-1.77,1.91-3.16,2.69-1.38,.78-3.01,1.26-4.85,1.43h0Zm-.22-1.02s.04,.02,.17,.02c1.65-.16,3.14-.6,4.4-1.3,1.26-.71,2.21-1.51,2.83-2.38,1.26-1.95,1.96-3.65,2.07-5.06l.08-1c0-3.53-1.75-3.94-3.07-3.94-1.62,0-2.89,.69-3.91,2.11-1.76,2.34-2.64,5.54-2.65,9.5l.08,2.06s0,0-.01,0Z"/></g><g><path class="cls-1" d="M229.58,163.25c0,2.38-.46,4.46-1.37,6.22-.91,1.77-1.95,3.07-3.11,3.9-1.16,.83-2.54,1.49-4.15,1.99-2.1,.66-4.01,1-5.73,1-3.6,0-6.59-.71-8.96-2.12-2.38-1.41-3.57-3.67-3.57-6.77,0-1.83,.5-3.32,1.49-4.48,1.55-1.71,3.4-2.57,5.56-2.57,.66,0,1,.3,1,.91,0,.06-.12,.49-.37,1.29-.25,.8-.37,1.81-.37,3.03s.48,2.3,1.45,3.24c.97,.94,2.14,1.41,3.53,1.41s2.49-.23,3.32-.71c.83-.47,1.41-1.06,1.74-1.79,.5-1,.75-1.94,.75-2.82,0-1.6-.8-2.99-2.41-4.15-1.61-1.16-3.38-2.08-5.31-2.74-1.94-.66-3.71-1.77-5.31-3.32-1.61-1.55-2.41-3.49-2.41-5.81,0-3.98,1.26-6.97,3.78-8.96,2.52-1.99,5.93-2.99,10.25-2.99,1.88,0,3.86,.26,5.93,.79,2.08,.53,3.11,1.41,3.11,2.66s-.21,2.39-.62,3.44c-.42,1.05-.93,1.58-1.54,1.58-.33,0-.55-.12-.66-.37-.11-.25-.3-.54-.58-.87-.28-.33-.94-.76-1.99-1.29-1.05-.52-1.95-.79-2.7-.79s-1.25,.01-1.49,.04c-.25,.03-.68,.11-1.29,.25-.61,.14-1.16,.35-1.66,.62-1.27,.72-1.91,1.77-1.91,3.15,0,.89,.19,1.54,.58,1.95,.39,.41,.69,.73,.91,.95,.22,.22,.61,.49,1.16,.79,.55,.3,.94,.51,1.16,.62,.22,.11,.72,.35,1.49,.71,.77,.36,1.27,.6,1.49,.71,5.86,2.77,8.8,6.53,8.8,11.29Z"/><path class="cls-1" d="M215.22,176.86c-3.67,0-6.77-.74-9.22-2.19-2.53-1.5-3.81-3.92-3.81-7.2,0-1.94,.54-3.56,1.61-4.81,1.65-1.83,3.65-2.75,5.94-2.75,.94,0,1.5,.53,1.5,1.41,0,.09,0,.16-.4,1.43-.23,.75-.35,1.72-.35,2.88,0,1.09,.43,2.03,1.3,2.88,.88,.86,1.92,1.27,3.18,1.27s2.33-.21,3.07-.64c.73-.42,1.25-.94,1.54-1.56,.47-.94,.7-1.81,.7-2.61,0-1.45-.72-2.67-2.2-3.74-1.56-1.13-3.3-2.03-5.18-2.67-2-.69-3.85-1.84-5.5-3.43-1.7-1.64-2.56-3.71-2.56-6.17,0-4.13,1.33-7.27,3.97-9.36,2.6-2.05,6.15-3.1,10.56-3.1,1.91,0,3.95,.27,6.06,.8,2.32,.59,3.49,1.64,3.49,3.14,0,1.3-.22,2.52-.66,3.63-.5,1.26-1.17,1.89-2,1.89-.72,0-1.01-.42-1.12-.67-.09-.21-.26-.46-.51-.75-.16-.19-.6-.54-1.83-1.16-.98-.49-1.81-.74-2.47-.74-.9,0-1.28,.02-1.44,.04-.23,.03-.64,.11-1.23,.24-.56,.13-1.07,.32-1.53,.57-1.11,.63-1.65,1.52-1.65,2.72,0,.75,.15,1.29,.45,1.61,.38,.41,.68,.72,.9,.94,.13,.13,.42,.36,1.05,.71,.55,.3,.93,.5,1.15,.61,.22,.11,.71,.34,1.48,.7,.78,.36,1.28,.6,1.51,.71,6.02,2.84,9.08,6.79,9.08,11.74,0,2.45-.48,4.62-1.42,6.45-.94,1.83-2.04,3.21-3.27,4.08-1.2,.86-2.64,1.55-4.29,2.06-2.14,.68-4.12,1.02-5.88,1.02Zm-5.48-15.94c-2.03,0-3.73,.79-5.19,2.41-.9,1.05-1.37,2.45-1.37,4.15,0,2.94,1.09,5.01,3.32,6.34,2.29,1.36,5.22,2.05,8.71,2.05,1.66,0,3.53-.33,5.58-.97,1.55-.48,2.9-1.13,4.01-1.92,1.09-.78,2.09-2.03,2.96-3.72,.87-1.69,1.31-3.71,1.31-6,0-4.53-2.86-8.17-8.51-10.84-.23-.11-.72-.35-1.49-.7-.78-.36-1.29-.6-1.51-.71s-.62-.32-1.18-.63c-.6-.33-1.02-.61-1.28-.88-.22-.22-.53-.54-.92-.96-.48-.51-.72-1.28-.72-2.29,0-1.57,.73-2.78,2.16-3.59,.54-.3,1.14-.53,1.79-.67,.64-.14,1.07-.23,1.34-.26,.28-.03,.78-.04,1.55-.04,.83,0,1.79,.28,2.92,.84,1.14,.57,1.83,1.02,2.15,1.41,.31,.37,.52,.69,.65,.99,.02,.04,.04,.08,.21,.08,.47,0,.84-.69,1.07-1.26,.39-.99,.59-2.08,.59-3.26,0-.37,0-1.48-2.74-2.17-2.03-.51-3.98-.77-5.81-.77-4.18,0-7.53,.97-9.94,2.88-2.38,1.88-3.59,4.76-3.59,8.57,0,2.21,.74,3.99,2.25,5.45,1.54,1.49,3.27,2.57,5.13,3.21,1.97,.68,3.81,1.62,5.44,2.81,1.73,1.26,2.61,2.79,2.61,4.55,0,.96-.27,1.98-.8,3.05-.37,.8-1.02,1.48-1.94,2-.9,.51-2.1,.77-3.57,.77s-2.82-.52-3.88-1.55c-1.06-1.03-1.6-2.24-1.6-3.6,0-1.26,.13-2.33,.4-3.18,.31-1,.35-1.18,.36-1.2,0-.19-.04-.35-.5-.35Z"/></g></svg>